<?xml version="1.0" encoding="UTF-8"?>
<svg xmlns="http://www.w3.org/2000/svg" viewBox="0 0 854 810" width="100%" height="auto" style="max-width:854px;height:auto;display:block" role="img" aria-labelledby="etta-map-title etta-map-desc" preserveAspectRatio="xMidYMid meet">
  <title id="etta-map-title">Etta curriculum map</title>
  <desc id="etta-map-desc">Etta curriculum across 12 domains in 4 phases. Phase 1 · Foundations; Phase 2 · Calculus &amp; Linear Algebra; Phase 3 · Classical &amp; Modern Physics; Phase 4 · Astrophysics. Domains: Algebra (56 concepts, phase 1), Pre-Calculus (25 concepts, phase 1), Trigonometry (28 concepts, phase 1), Differential Equations (27 concepts, phase 2), Linear Algebra (30 concepts, phase 2), Multivariable Calculus (33 concepts, phase 2), Single-Variable Calculus (43 concepts, phase 2), Classical Mechanics (33 concepts, phase 3), Electromagnetism (26 concepts, phase 3), Quantum Mechanics (31 concepts, phase 3), Thermodynamics &amp; Statistical Mechanics (23 concepts, phase 3), Astrophysics (47 concepts, phase 4).</desc>
  <g class="etta-map-edges">
<path d="M162.0,541.0 C97.0,541.0 97.0,379.0 32.0,379.0" fill="none" stroke="rgb(var(--color-surface-border))" stroke-width="1.5" opacity="0.7"/>
<path d="M162.0,172.0 C97.0,172.0 97.0,541.0 32.0,541.0" fill="none" stroke="rgb(var(--color-surface-border))" stroke-width="1.5" opacity="0.7"/>
<path d="M382.0,658.0 C317.0,658.0 317.0,127.0 252.0,127.0" fill="none" stroke="rgb(var(--color-surface-border))" stroke-width="1.5" opacity="0.7"/>
<path d="M382.0,658.0 C317.0,658.0 317.0,289.0 252.0,289.0" fill="none" stroke="rgb(var(--color-surface-border))" stroke-width="1.5" opacity="0.7"/>
<path d="M382.0,658.0 C317.0,658.0 317.0,460.0 252.0,460.0" fill="none" stroke="rgb(var(--color-surface-border))" stroke-width="1.5" opacity="0.7"/>
<path d="M162.0,379.0 C207.0,379.0 207.0,658.0 252.0,658.0" fill="none" stroke="rgb(var(--color-surface-border))" stroke-width="1.5" opacity="0.7"/>
<path d="M382.0,460.0 C427.0,460.0 427.0,136.0 472.0,136.0" fill="none" stroke="rgb(var(--color-surface-border))" stroke-width="1.5" opacity="0.7"/>
<path d="M382.0,460.0 C427.0,460.0 427.0,307.0 472.0,307.0" fill="none" stroke="rgb(var(--color-surface-border))" stroke-width="1.5" opacity="0.7"/>
<path d="M382.0,289.0 C427.0,289.0 427.0,478.0 472.0,478.0" fill="none" stroke="rgb(var(--color-surface-border))" stroke-width="1.5" opacity="0.7"/>
<path d="M382.0,460.0 C427.0,460.0 427.0,640.0 472.0,640.0" fill="none" stroke="rgb(var(--color-surface-border))" stroke-width="1.5" opacity="0.7"/>
<path d="M602.0,136.0 C647.0,136.0 647.0,154.0 692.0,154.0" fill="none" stroke="rgb(var(--color-surface-border))" stroke-width="1.5" opacity="0.7"/>
  </g>
  <g class="etta-map-phase-titles">
<text x="32" y="26" font-size="13" font-weight="600" fill="rgb(var(--color-text))">Phase 1 · Foundations</text>
<text x="252" y="26" font-size="13" font-weight="600" fill="rgb(var(--color-text))">Phase 2 · Calculus &amp; Linear Algebra</text>
<text x="472" y="26" font-size="13" font-weight="600" fill="rgb(var(--color-text))">Phase 3 · Classical &amp; Modern Physics</text>
<text x="692" y="26" font-size="13" font-weight="600" fill="rgb(var(--color-text))">Phase 4 · Astrophysics</text>
  </g>
  <g class="etta-map-cards">
<g><rect x="32" y="58" width="130" height="228" rx="10" fill="rgb(var(--color-surface-raised))" stroke="rgb(var(--color-surface-border))" stroke-width="1"/><text x="46" y="75" font-size="11" font-weight="600" fill="rgb(var(--color-text))">Algebra</text></g>
<g><rect x="32" y="310" width="130" height="138" rx="10" fill="rgb(var(--color-surface-raised))" stroke="rgb(var(--color-surface-border))" stroke-width="1"/><text x="46" y="327" font-size="11" font-weight="600" fill="rgb(var(--color-text))">Pre-Calculus</text></g>
<g><rect x="32" y="472" width="130" height="138" rx="10" fill="rgb(var(--color-surface-raised))" stroke="rgb(var(--color-surface-border))" stroke-width="1"/><text x="46" y="489" font-size="11" font-weight="600" fill="rgb(var(--color-text))">Trigonometry</text></g>
<g><rect x="252" y="58" width="130" height="138" rx="10" fill="rgb(var(--color-surface-raised))" stroke="rgb(var(--color-surface-border))" stroke-width="1"/><text x="266" y="75" font-size="11" font-weight="600" fill="rgb(var(--color-text))">Differential Equations</text></g>
<g><rect x="252" y="220" width="130" height="138" rx="10" fill="rgb(var(--color-surface-raised))" stroke="rgb(var(--color-surface-border))" stroke-width="1"/><text x="266" y="237" font-size="11" font-weight="600" fill="rgb(var(--color-text))">Linear Algebra</text></g>
<g><rect x="252" y="382" width="130" height="156" rx="10" fill="rgb(var(--color-surface-raised))" stroke="rgb(var(--color-surface-border))" stroke-width="1"/><text x="266" y="399" font-size="11" font-weight="600" fill="rgb(var(--color-text))">Multivariable Calculus</text></g>
<g><rect x="252" y="562" width="130" height="192" rx="10" fill="rgb(var(--color-surface-raised))" stroke="rgb(var(--color-surface-border))" stroke-width="1"/><text x="266" y="579" font-size="11" font-weight="600" fill="rgb(var(--color-text))">Single-Variable Calculus</text></g>
<g><rect x="472" y="58" width="130" height="156" rx="10" fill="rgb(var(--color-surface-raised))" stroke="rgb(var(--color-surface-border))" stroke-width="1"/><text x="486" y="75" font-size="11" font-weight="600" fill="rgb(var(--color-text))">Classical Mechanics</text></g>
<g><rect x="472" y="238" width="130" height="138" rx="10" fill="rgb(var(--color-surface-raised))" stroke="rgb(var(--color-surface-border))" stroke-width="1"/><text x="486" y="255" font-size="11" font-weight="600" fill="rgb(var(--color-text))">Electromagnetism</text></g>
<g><rect x="472" y="400" width="130" height="156" rx="10" fill="rgb(var(--color-surface-raised))" stroke="rgb(var(--color-surface-border))" stroke-width="1"/><text x="486" y="417" font-size="11" font-weight="600" fill="rgb(var(--color-text))">Quantum Mechanics</text></g>
<g><rect x="472" y="580" width="130" height="120" rx="10" fill="rgb(var(--color-surface-raised))" stroke="rgb(var(--color-surface-border))" stroke-width="1"/><text x="486" y="597" font-size="11" font-weight="600" fill="rgb(var(--color-text))">Thermodynamics &amp; Statistical Mechanics</text></g>
<g><rect x="692" y="58" width="130" height="192" rx="10" fill="rgb(var(--color-surface-raised))" stroke="rgb(var(--color-surface-border))" stroke-width="1"/><text x="706" y="75" font-size="11" font-weight="600" fill="rgb(var(--color-text))">Astrophysics</text></g>
  </g>
  <g class="etta-map-nodes"><circle cx="52.0" cy="104.0" r="6" fill="rgb(var(--color-surface-muted))"/><circle cx="70.0" cy="104.0" r="6" fill="rgb(var(--color-surface-muted))"/><circle cx="88.0" cy="104.0" r="6" fill="rgb(var(--color-surface-muted))"/><circle cx="106.0" cy="104.0" r="6" fill="rgb(var(--color-surface-muted))"/><circle cx="124.0" cy="104.0" r="6" fill="rgb(var(--color-surface-muted))"/><circle cx="142.0" cy="104.0" r="6" fill="rgb(var(--color-surface-muted))"/><circle cx="52.0" cy="122.0" r="6" fill="rgb(var(--color-surface-muted))"/><circle cx="70.0" cy="122.0" r="6" fill="rgb(var(--color-surface-muted))"/><circle cx="88.0" cy="122.0" r="6" fill="rgb(var(--color-surface-muted))"/><circle cx="106.0" cy="122.0" r="6" fill="rgb(var(--color-surface-muted))"/><circle cx="124.0" cy="122.0" r="6" fill="rgb(var(--color-surface-muted))"/><circle cx="142.0" cy="122.0" r="6" fill="rgb(var(--color-surface-muted))"/><circle cx="52.0" cy="140.0" r="6" fill="rgb(var(--color-surface-muted))"/><circle cx="70.0" cy="140.0" r="6" fill="rgb(var(--color-surface-muted))"/><circle cx="88.0" cy="140.0" r="6" fill="rgb(var(--color-surface-muted))"/><circle cx="106.0" cy="140.0" r="6" fill="rgb(var(--color-surface-muted))"/><circle cx="124.0" cy="140.0" r="6" fill="rgb(var(--color-surface-muted))"/><circle cx="142.0" cy="140.0" r="6" fill="rgb(var(--color-surface-muted))"/><circle cx="52.0" cy="158.0" r="6" fill="rgb(var(--color-surface-muted))"/><circle cx="70.0" cy="158.0" r="6" fill="rgb(var(--color-surface-muted))"/><circle cx="88.0" cy="158.0" r="6" fill="rgb(var(--color-surface-muted))"/><circle cx="106.0" cy="158.0" r="6" fill="rgb(var(--color-surface-muted))"/><circle cx="124.0" cy="158.0" r="6" fill="rgb(var(--color-surface-muted))"/><circle cx="142.0" cy="158.0" r="6" fill="rgb(var(--color-surface-muted))"/><circle cx="52.0" cy="176.0" r="6" fill="rgb(var(--color-surface-muted))"/><circle cx="70.0" cy="176.0" r="6" fill="rgb(var(--color-surface-muted))"/><circle cx="88.0" cy="176.0" r="6" fill="rgb(var(--color-surface-muted))"/><circle cx="106.0" cy="176.0" r="6" fill="rgb(var(--color-surface-muted))"/><circle cx="124.0" cy="176.0" r="6" fill="rgb(var(--color-surface-muted))"/><circle cx="142.0" cy="176.0" r="6" fill="rgb(var(--color-surface-muted))"/><circle cx="52.0" cy="194.0" r="6" fill="rgb(var(--color-surface-muted))"/><circle cx="70.0" cy="194.0" r="6" fill="rgb(var(--color-surface-muted))"/><circle cx="88.0" cy="194.0" r="6" fill="rgb(var(--color-surface-muted))"/><circle cx="106.0" cy="194.0" r="6" fill="rgb(var(--color-surface-muted))"/><circle cx="124.0" cy="194.0" r="6" fill="rgb(var(--color-surface-muted))"/><circle cx="142.0" cy="194.0" r="6" fill="rgb(var(--color-surface-muted))"/><circle cx="52.0" cy="212.0" r="6" fill="rgb(var(--color-surface-muted))"/><circle cx="70.0" cy="212.0" r="6" fill="rgb(var(--color-surface-muted))"/><circle cx="88.0" cy="212.0" r="6" fill="rgb(var(--color-surface-muted))"/><circle cx="106.0" cy="212.0" r="6" fill="rgb(var(--color-surface-muted))"/><circle cx="124.0" cy="212.0" r="6" fill="rgb(var(--color-surface-muted))"/><circle cx="142.0" cy="212.0" r="6" fill="rgb(var(--color-surface-muted))"/><circle cx="52.0" cy="230.0" r="6" fill="rgb(var(--color-surface-muted))"/><circle cx="70.0" cy="230.0" r="6" fill="rgb(var(--color-surface-muted))"/><circle cx="88.0" cy="230.0" r="6" fill="rgb(var(--color-surface-muted))"/><circle cx="106.0" cy="230.0" r="6" fill="rgb(var(--color-surface-muted))"/><circle cx="124.0" cy="230.0" r="6" fill="rgb(var(--color-surface-muted))"/><circle cx="142.0" cy="230.0" r="6" fill="rgb(var(--color-surface-muted))"/><circle cx="52.0" cy="248.0" r="6" fill="rgb(var(--color-surface-muted))"/><circle cx="70.0" cy="248.0" r="6" fill="rgb(var(--color-surface-muted))"/><circle cx="88.0" cy="248.0" r="6" fill="rgb(var(--color-surface-muted))"/><circle cx="106.0" cy="248.0" r="6" fill="rgb(var(--color-surface-muted))"/><circle cx="124.0" cy="248.0" r="6" fill="rgb(var(--color-surface-muted))"/><circle cx="142.0" cy="248.0" r="6" fill="rgb(var(--color-surface-muted))"/><circle cx="52.0" cy="266.0" r="6" fill="rgb(var(--color-surface-muted))"/><circle cx="70.0" cy="266.0" r="6" fill="rgb(var(--color-surface-muted))"/><circle cx="52.0" cy="356.0" r="6" fill="rgb(var(--color-surface-muted))"/><circle cx="70.0" cy="356.0" r="6" fill="rgb(var(--color-surface-muted))"/><circle cx="88.0" cy="356.0" r="6" fill="rgb(var(--color-surface-muted))"/><circle cx="106.0" cy="356.0" r="6" fill="rgb(var(--color-surface-muted))"/><circle cx="124.0" cy="356.0" r="6" fill="rgb(var(--color-surface-muted))"/><circle cx="142.0" cy="356.0" r="6" fill="rgb(var(--color-surface-muted))"/><circle cx="52.0" cy="374.0" r="6" fill="rgb(var(--color-surface-muted))"/><circle cx="70.0" cy="374.0" r="6" fill="rgb(var(--color-surface-muted))"/><circle cx="88.0" cy="374.0" r="6" fill="rgb(var(--color-surface-muted))"/><circle cx="106.0" cy="374.0" r="6" fill="rgb(var(--color-surface-muted))"/><circle cx="124.0" cy="374.0" r="6" fill="rgb(var(--color-surface-muted))"/><circle cx="142.0" cy="374.0" r="6" fill="rgb(var(--color-surface-muted))"/><circle cx="52.0" cy="392.0" r="6" fill="rgb(var(--color-surface-muted))"/><circle cx="70.0" cy="392.0" r="6" fill="rgb(var(--color-surface-muted))"/><circle cx="88.0" cy="392.0" r="6" fill="rgb(var(--color-surface-muted))"/><circle cx="106.0" cy="392.0" r="6" fill="rgb(var(--color-surface-muted))"/><circle cx="124.0" cy="392.0" r="6" fill="rgb(var(--color-surface-muted))"/><circle cx="142.0" cy="392.0" r="6" fill="rgb(var(--color-surface-muted))"/><circle cx="52.0" cy="410.0" r="6" fill="rgb(var(--color-surface-muted))"/><circle cx="70.0" cy="410.0" r="6" fill="rgb(var(--color-surface-muted))"/><circle cx="88.0" cy="410.0" r="6" fill="rgb(var(--color-surface-muted))"/><circle cx="106.0" cy="410.0" r="6" fill="rgb(var(--color-surface-muted))"/><circle cx="124.0" cy="410.0" r="6" fill="rgb(var(--color-surface-muted))"/><circle cx="142.0" cy="410.0" r="6" fill="rgb(var(--color-surface-muted))"/><circle cx="52.0" cy="428.0" r="6" fill="rgb(var(--color-surface-muted))"/><circle cx="52.0" cy="518.0" r="6" fill="rgb(var(--color-surface-muted))"/><circle cx="70.0" cy="518.0" r="6" fill="rgb(var(--color-surface-muted))"/><circle cx="88.0" cy="518.0" r="6" fill="rgb(var(--color-surface-muted))"/><circle cx="106.0" cy="518.0" r="6" fill="rgb(var(--color-surface-muted))"/><circle cx="124.0" cy="518.0" r="6" fill="rgb(var(--color-surface-muted))"/><circle cx="142.0" cy="518.0" r="6" fill="rgb(var(--color-surface-muted))"/><circle cx="52.0" cy="536.0" r="6" fill="rgb(var(--color-surface-muted))"/><circle cx="70.0" cy="536.0" r="6" fill="rgb(var(--color-surface-muted))"/><circle cx="88.0" cy="536.0" r="6" fill="rgb(var(--color-surface-muted))"/><circle cx="106.0" cy="536.0" r="6" fill="rgb(var(--color-surface-muted))"/><circle cx="124.0" cy="536.0" r="6" fill="rgb(var(--color-surface-muted))"/><circle cx="142.0" cy="536.0" r="6" fill="rgb(var(--color-surface-muted))"/><circle cx="52.0" cy="554.0" r="6" fill="rgb(var(--color-surface-muted))"/><circle cx="70.0" cy="554.0" r="6" fill="rgb(var(--color-surface-muted))"/><circle cx="88.0" cy="554.0" r="6" fill="rgb(var(--color-surface-muted))"/><circle cx="106.0" cy="554.0" r="6" fill="rgb(var(--color-surface-muted))"/><circle cx="124.0" cy="554.0" r="6" fill="rgb(var(--color-surface-muted))"/><circle cx="142.0" cy="554.0" r="6" fill="rgb(var(--color-surface-muted))"/><circle cx="52.0" cy="572.0" r="6" fill="rgb(var(--color-surface-muted))"/><circle cx="70.0" cy="572.0" r="6" fill="rgb(var(--color-surface-muted))"/><circle cx="88.0" cy="572.0" r="6" fill="rgb(var(--color-surface-muted))"/><circle cx="106.0" cy="572.0" r="6" fill="rgb(var(--color-surface-muted))"/><circle cx="124.0" cy="572.0" r="6" fill="rgb(var(--color-surface-muted))"/><circle cx="142.0" cy="572.0" r="6" fill="rgb(var(--color-surface-muted))"/><circle cx="52.0" cy="590.0" r="6" fill="rgb(var(--color-surface-muted))"/><circle cx="70.0" cy="590.0" r="6" fill="rgb(var(--color-surface-muted))"/><circle cx="88.0" cy="590.0" r="6" fill="rgb(var(--color-surface-muted))"/><circle cx="106.0" cy="590.0" r="6" fill="rgb(var(--color-surface-muted))"/><circle cx="272.0" cy="104.0" r="6" fill="rgb(var(--color-surface-muted))"/><circle cx="290.0" cy="104.0" r="6" fill="rgb(var(--color-surface-muted))"/><circle cx="308.0" cy="104.0" r="6" fill="rgb(var(--color-surface-muted))"/><circle cx="326.0" cy="104.0" r="6" fill="rgb(var(--color-surface-muted))"/><circle cx="344.0" cy="104.0" r="6" fill="rgb(var(--color-surface-muted))"/><circle cx="362.0" cy="104.0" r="6" fill="rgb(var(--color-surface-muted))"/><circle cx="272.0" cy="122.0" r="6" fill="rgb(var(--color-surface-muted))"/><circle cx="290.0" cy="122.0" r="6" fill="rgb(var(--color-surface-muted))"/><circle cx="308.0" cy="122.0" r="6" fill="rgb(var(--color-surface-muted))"/><circle cx="326.0" cy="122.0" r="6" fill="rgb(var(--color-surface-muted))"/><circle cx="344.0" cy="122.0" r="6" fill="rgb(var(--color-surface-muted))"/><circle cx="362.0" cy="122.0" r="6" fill="rgb(var(--color-surface-muted))"/><circle cx="272.0" cy="140.0" r="6" fill="rgb(var(--color-surface-muted))"/><circle cx="290.0" cy="140.0" r="6" fill="rgb(var(--color-surface-muted))"/><circle cx="308.0" cy="140.0" r="6" fill="rgb(var(--color-surface-muted))"/><circle cx="326.0" cy="140.0" r="6" fill="rgb(var(--color-surface-muted))"/><circle cx="344.0" cy="140.0" r="6" fill="rgb(var(--color-surface-muted))"/><circle cx="362.0" cy="140.0" r="6" fill="rgb(var(--color-surface-muted))"/><circle cx="272.0" cy="158.0" r="6" fill="rgb(var(--color-surface-muted))"/><circle cx="290.0" cy="158.0" r="6" fill="rgb(var(--color-surface-muted))"/><circle cx="308.0" cy="158.0" r="6" fill="rgb(var(--color-surface-muted))"/><circle cx="326.0" cy="158.0" r="6" fill="rgb(var(--color-surface-muted))"/><circle cx="344.0" cy="158.0" r="6" fill="rgb(var(--color-surface-muted))"/><circle cx="362.0" cy="158.0" r="6" fill="rgb(var(--color-surface-muted))"/><circle cx="272.0" cy="176.0" r="6" fill="rgb(var(--color-surface-muted))"/><circle cx="290.0" cy="176.0" r="6" fill="rgb(var(--color-surface-muted))"/><circle cx="308.0" cy="176.0" r="6" fill="rgb(var(--color-surface-muted))"/><circle cx="272.0" cy="266.0" r="6" fill="rgb(var(--color-surface-muted))"/><circle cx="290.0" cy="266.0" r="6" fill="rgb(var(--color-surface-muted))"/><circle cx="308.0" cy="266.0" r="6" fill="rgb(var(--color-surface-muted))"/><circle cx="326.0" cy="266.0" r="6" fill="rgb(var(--color-surface-muted))"/><circle cx="344.0" cy="266.0" r="6" fill="rgb(var(--color-surface-muted))"/><circle cx="362.0" cy="266.0" r="6" fill="rgb(var(--color-surface-muted))"/><circle cx="272.0" cy="284.0" r="6" fill="rgb(var(--color-surface-muted))"/><circle cx="290.0" cy="284.0" r="6" fill="rgb(var(--color-surface-muted))"/><circle cx="308.0" cy="284.0" r="6" fill="rgb(var(--color-surface-muted))"/><circle cx="326.0" cy="284.0" r="6" fill="rgb(var(--color-surface-muted))"/><circle cx="344.0" cy="284.0" r="6" fill="rgb(var(--color-surface-muted))"/><circle cx="362.0" cy="284.0" r="6" fill="rgb(var(--color-surface-muted))"/><circle cx="272.0" cy="302.0" r="6" fill="rgb(var(--color-surface-muted))"/><circle cx="290.0" cy="302.0" r="6" fill="rgb(var(--color-surface-muted))"/><circle cx="308.0" cy="302.0" r="6" fill="rgb(var(--color-surface-muted))"/><circle cx="326.0" cy="302.0" r="6" fill="rgb(var(--color-surface-muted))"/><circle cx="344.0" cy="302.0" r="6" fill="rgb(var(--color-surface-muted))"/><circle cx="362.0" cy="302.0" r="6" fill="rgb(var(--color-surface-muted))"/><circle cx="272.0" cy="320.0" r="6" fill="rgb(var(--color-surface-muted))"/><circle cx="290.0" cy="320.0" r="6" fill="rgb(var(--color-surface-muted))"/><circle cx="308.0" cy="320.0" r="6" fill="rgb(var(--color-surface-muted))"/><circle cx="326.0" cy="320.0" r="6" fill="rgb(var(--color-surface-muted))"/><circle cx="344.0" cy="320.0" r="6" fill="rgb(var(--color-surface-muted))"/><circle cx="362.0" cy="320.0" r="6" fill="rgb(var(--color-surface-muted))"/><circle cx="272.0" cy="338.0" r="6" fill="rgb(var(--color-surface-muted))"/><circle cx="290.0" cy="338.0" r="6" fill="rgb(var(--color-surface-muted))"/><circle cx="308.0" cy="338.0" r="6" fill="rgb(var(--color-surface-muted))"/><circle cx="326.0" cy="338.0" r="6" fill="rgb(var(--color-surface-muted))"/><circle cx="344.0" cy="338.0" r="6" fill="rgb(var(--color-surface-muted))"/><circle cx="362.0" cy="338.0" r="6" fill="rgb(var(--color-surface-muted))"/><circle cx="272.0" cy="428.0" r="6" fill="rgb(var(--color-surface-muted))"/><circle cx="290.0" cy="428.0" r="6" fill="rgb(var(--color-surface-muted))"/><circle cx="308.0" cy="428.0" r="6" fill="rgb(var(--color-surface-muted))"/><circle cx="326.0" cy="428.0" r="6" fill="rgb(var(--color-surface-muted))"/><circle cx="344.0" cy="428.0" r="6" fill="rgb(var(--color-surface-muted))"/><circle cx="362.0" cy="428.0" r="6" fill="rgb(var(--color-surface-muted))"/><circle cx="272.0" cy="446.0" r="6" fill="rgb(var(--color-surface-muted))"/><circle cx="290.0" cy="446.0" r="6" fill="rgb(var(--color-surface-muted))"/><circle cx="308.0" cy="446.0" r="6" fill="rgb(var(--color-surface-muted))"/><circle cx="326.0" cy="446.0" r="6" fill="rgb(var(--color-surface-muted))"/><circle cx="344.0" cy="446.0" r="6" fill="rgb(var(--color-surface-muted))"/><circle cx="362.0" cy="446.0" r="6" fill="rgb(var(--color-surface-muted))"/><circle cx="272.0" cy="464.0" r="6" fill="rgb(var(--color-surface-muted))"/><circle cx="290.0" cy="464.0" r="6" fill="rgb(var(--color-surface-muted))"/><circle cx="308.0" cy="464.0" r="6" fill="rgb(var(--color-surface-muted))"/><circle cx="326.0" cy="464.0" r="6" fill="rgb(var(--color-surface-muted))"/><circle cx="344.0" cy="464.0" r="6" fill="rgb(var(--color-surface-muted))"/><circle cx="362.0" cy="464.0" r="6" fill="rgb(var(--color-surface-muted))"/><circle cx="272.0" cy="482.0" r="6" fill="rgb(var(--color-surface-muted))"/><circle cx="290.0" cy="482.0" r="6" fill="rgb(var(--color-surface-muted))"/><circle cx="308.0" cy="482.0" r="6" fill="rgb(var(--color-surface-muted))"/><circle cx="326.0" cy="482.0" r="6" fill="rgb(var(--color-surface-muted))"/><circle cx="344.0" cy="482.0" r="6" fill="rgb(var(--color-surface-muted))"/><circle cx="362.0" cy="482.0" r="6" fill="rgb(var(--color-surface-muted))"/><circle cx="272.0" cy="500.0" r="6" fill="rgb(var(--color-surface-muted))"/><circle cx="290.0" cy="500.0" r="6" fill="rgb(var(--color-surface-muted))"/><circle cx="308.0" cy="500.0" r="6" fill="rgb(var(--color-surface-muted))"/><circle cx="326.0" cy="500.0" r="6" fill="rgb(var(--color-surface-muted))"/><circle cx="344.0" cy="500.0" r="6" fill="rgb(var(--color-surface-muted))"/><circle cx="362.0" cy="500.0" r="6" fill="rgb(var(--color-surface-muted))"/><circle cx="272.0" cy="518.0" r="6" fill="rgb(var(--color-surface-muted))"/><circle cx="290.0" cy="518.0" r="6" fill="rgb(var(--color-surface-muted))"/><circle cx="308.0" cy="518.0" r="6" fill="rgb(var(--color-surface-muted))"/><circle cx="272.0" cy="608.0" r="6" fill="rgb(var(--color-surface-muted))"/><circle cx="290.0" cy="608.0" r="6" fill="rgb(var(--color-surface-muted))"/><circle cx="308.0" cy="608.0" r="6" fill="rgb(var(--color-surface-muted))"/><circle cx="326.0" cy="608.0" r="6" fill="rgb(var(--color-surface-muted))"/><circle cx="344.0" cy="608.0" r="6" fill="rgb(var(--color-surface-muted))"/><circle cx="362.0" cy="608.0" r="6" fill="rgb(var(--color-surface-muted))"/><circle cx="272.0" cy="626.0" r="6" fill="rgb(var(--color-surface-muted))"/><circle cx="290.0" cy="626.0" r="6" fill="rgb(var(--color-surface-muted))"/><circle cx="308.0" cy="626.0" r="6" fill="rgb(var(--color-surface-muted))"/><circle cx="326.0" cy="626.0" r="6" fill="rgb(var(--color-surface-muted))"/><circle cx="344.0" cy="626.0" r="6" fill="rgb(var(--color-surface-muted))"/><circle cx="362.0" cy="626.0" r="6" fill="rgb(var(--color-surface-muted))"/><circle cx="272.0" cy="644.0" r="6" fill="rgb(var(--color-surface-muted))"/><circle cx="290.0" cy="644.0" r="6" fill="rgb(var(--color-surface-muted))"/><circle cx="308.0" cy="644.0" r="6" fill="rgb(var(--color-surface-muted))"/><circle cx="326.0" cy="644.0" r="6" fill="rgb(var(--color-surface-muted))"/><circle cx="344.0" cy="644.0" r="6" fill="rgb(var(--color-surface-muted))"/><circle cx="362.0" cy="644.0" r="6" fill="rgb(var(--color-surface-muted))"/><circle cx="272.0" cy="662.0" r="6" fill="rgb(var(--color-surface-muted))"/><circle cx="290.0" cy="662.0" r="6" fill="rgb(var(--color-surface-muted))"/><circle cx="308.0" cy="662.0" r="6" fill="rgb(var(--color-surface-muted))"/><circle cx="326.0" cy="662.0" r="6" fill="rgb(var(--color-surface-muted))"/><circle cx="344.0" cy="662.0" r="6" fill="rgb(var(--color-surface-muted))"/><circle cx="362.0" cy="662.0" r="6" fill="rgb(var(--color-surface-muted))"/><circle cx="272.0" cy="680.0" r="6" fill="rgb(var(--color-surface-muted))"/><circle cx="290.0" cy="680.0" r="6" fill="rgb(var(--color-surface-muted))"/><circle cx="308.0" cy="680.0" r="6" fill="rgb(var(--color-surface-muted))"/><circle cx="326.0" cy="680.0" r="6" fill="rgb(var(--color-surface-muted))"/><circle cx="344.0" cy="680.0" r="6" fill="rgb(var(--color-surface-muted))"/><circle cx="362.0" cy="680.0" r="6" fill="rgb(var(--color-surface-muted))"/><circle cx="272.0" cy="698.0" r="6" fill="rgb(var(--color-surface-muted))"/><circle cx="290.0" cy="698.0" r="6" fill="rgb(var(--color-surface-muted))"/><circle cx="308.0" cy="698.0" r="6" fill="rgb(var(--color-surface-muted))"/><circle cx="326.0" cy="698.0" r="6" fill="rgb(var(--color-surface-muted))"/><circle cx="344.0" cy="698.0" r="6" fill="rgb(var(--color-surface-muted))"/><circle cx="362.0" cy="698.0" r="6" fill="rgb(var(--color-surface-muted))"/><circle cx="272.0" cy="716.0" r="6" fill="rgb(var(--color-surface-muted))"/><circle cx="290.0" cy="716.0" r="6" fill="rgb(var(--color-surface-muted))"/><circle cx="308.0" cy="716.0" r="6" fill="rgb(var(--color-surface-muted))"/><circle cx="326.0" cy="716.0" r="6" fill="rgb(var(--color-surface-muted))"/><circle cx="344.0" cy="716.0" r="6" fill="rgb(var(--color-surface-muted))"/><circle cx="362.0" cy="716.0" r="6" fill="rgb(var(--color-surface-muted))"/><circle cx="272.0" cy="734.0" r="6" fill="rgb(var(--color-surface-muted))"/><circle cx="492.0" cy="104.0" r="6" fill="rgb(var(--color-surface-muted))"/><circle cx="510.0" cy="104.0" r="6" fill="rgb(var(--color-surface-muted))"/><circle cx="528.0" cy="104.0" r="6" fill="rgb(var(--color-surface-muted))"/><circle cx="546.0" cy="104.0" r="6" fill="rgb(var(--color-surface-muted))"/><circle cx="564.0" cy="104.0" r="6" fill="rgb(var(--color-surface-muted))"/><circle cx="582.0" cy="104.0" r="6" fill="rgb(var(--color-surface-muted))"/><circle cx="492.0" cy="122.0" r="6" fill="rgb(var(--color-surface-muted))"/><circle cx="510.0" cy="122.0" r="6" fill="rgb(var(--color-surface-muted))"/><circle cx="528.0" cy="122.0" r="6" fill="rgb(var(--color-surface-muted))"/><circle cx="546.0" cy="122.0" r="6" fill="rgb(var(--color-surface-muted))"/><circle cx="564.0" cy="122.0" r="6" fill="rgb(var(--color-surface-muted))"/><circle cx="582.0" cy="122.0" r="6" fill="rgb(var(--color-surface-muted))"/><circle cx="492.0" cy="140.0" r="6" fill="rgb(var(--color-surface-muted))"/><circle cx="510.0" cy="140.0" r="6" fill="rgb(var(--color-surface-muted))"/><circle cx="528.0" cy="140.0" r="6" fill="rgb(var(--color-surface-muted))"/><circle cx="546.0" cy="140.0" r="6" fill="rgb(var(--color-surface-muted))"/><circle cx="564.0" cy="140.0" r="6" fill="rgb(var(--color-surface-muted))"/><circle cx="582.0" cy="140.0" r="6" fill="rgb(var(--color-surface-muted))"/><circle cx="492.0" cy="158.0" r="6" fill="rgb(var(--color-surface-muted))"/><circle cx="510.0" cy="158.0" r="6" fill="rgb(var(--color-surface-muted))"/><circle cx="528.0" cy="158.0" r="6" fill="rgb(var(--color-surface-muted))"/><circle cx="546.0" cy="158.0" r="6" fill="rgb(var(--color-surface-muted))"/><circle cx="564.0" cy="158.0" r="6" fill="rgb(var(--color-surface-muted))"/><circle cx="582.0" cy="158.0" r="6" fill="rgb(var(--color-surface-muted))"/><circle cx="492.0" cy="176.0" r="6" fill="rgb(var(--color-surface-muted))"/><circle cx="510.0" cy="176.0" r="6" fill="rgb(var(--color-surface-muted))"/><circle cx="528.0" cy="176.0" r="6" fill="rgb(var(--color-surface-muted))"/><circle cx="546.0" cy="176.0" r="6" fill="rgb(var(--color-surface-muted))"/><circle cx="564.0" cy="176.0" r="6" fill="rgb(var(--color-surface-muted))"/><circle cx="582.0" cy="176.0" r="6" fill="rgb(var(--color-surface-muted))"/><circle cx="492.0" cy="194.0" r="6" fill="rgb(var(--color-surface-muted))"/><circle cx="510.0" cy="194.0" r="6" fill="rgb(var(--color-surface-muted))"/><circle cx="528.0" cy="194.0" r="6" fill="rgb(var(--color-surface-muted))"/><circle cx="492.0" cy="284.0" r="6" fill="rgb(var(--color-surface-muted))"/><circle cx="510.0" cy="284.0" r="6" fill="rgb(var(--color-surface-muted))"/><circle cx="528.0" cy="284.0" r="6" fill="rgb(var(--color-surface-muted))"/><circle cx="546.0" cy="284.0" r="6" fill="rgb(var(--color-surface-muted))"/><circle cx="564.0" cy="284.0" r="6" fill="rgb(var(--color-surface-muted))"/><circle cx="582.0" cy="284.0" r="6" fill="rgb(var(--color-surface-muted))"/><circle cx="492.0" cy="302.0" r="6" fill="rgb(var(--color-surface-muted))"/><circle cx="510.0" cy="302.0" r="6" fill="rgb(var(--color-surface-muted))"/><circle cx="528.0" cy="302.0" r="6" fill="rgb(var(--color-surface-muted))"/><circle cx="546.0" cy="302.0" r="6" fill="rgb(var(--color-surface-muted))"/><circle cx="564.0" cy="302.0" r="6" fill="rgb(var(--color-surface-muted))"/><circle cx="582.0" cy="302.0" r="6" fill="rgb(var(--color-surface-muted))"/><circle cx="492.0" cy="320.0" r="6" fill="rgb(var(--color-surface-muted))"/><circle cx="510.0" cy="320.0" r="6" fill="rgb(var(--color-surface-muted))"/><circle cx="528.0" cy="320.0" r="6" fill="rgb(var(--color-surface-muted))"/><circle cx="546.0" cy="320.0" r="6" fill="rgb(var(--color-surface-muted))"/><circle cx="564.0" cy="320.0" r="6" fill="rgb(var(--color-surface-muted))"/><circle cx="582.0" cy="320.0" r="6" fill="rgb(var(--color-surface-muted))"/><circle cx="492.0" cy="338.0" r="6" fill="rgb(var(--color-surface-muted))"/><circle cx="510.0" cy="338.0" r="6" fill="rgb(var(--color-surface-muted))"/><circle cx="528.0" cy="338.0" r="6" fill="rgb(var(--color-surface-muted))"/><circle cx="546.0" cy="338.0" r="6" fill="rgb(var(--color-surface-muted))"/><circle cx="564.0" cy="338.0" r="6" fill="rgb(var(--color-surface-muted))"/><circle cx="582.0" cy="338.0" r="6" fill="rgb(var(--color-surface-muted))"/><circle cx="492.0" cy="356.0" r="6" fill="rgb(var(--color-surface-muted))"/><circle cx="510.0" cy="356.0" r="6" fill="rgb(var(--color-surface-muted))"/><circle cx="492.0" cy="446.0" r="6" fill="rgb(var(--color-surface-muted))"/><circle cx="510.0" cy="446.0" r="6" fill="rgb(var(--color-surface-muted))"/><circle cx="528.0" cy="446.0" r="6" fill="rgb(var(--color-surface-muted))"/><circle cx="546.0" cy="446.0" r="6" fill="rgb(var(--color-surface-muted))"/><circle cx="564.0" cy="446.0" r="6" fill="rgb(var(--color-surface-muted))"/><circle cx="582.0" cy="446.0" r="6" fill="rgb(var(--color-surface-muted))"/><circle cx="492.0" cy="464.0" r="6" fill="rgb(var(--color-surface-muted))"/><circle cx="510.0" cy="464.0" r="6" fill="rgb(var(--color-surface-muted))"/><circle cx="528.0" cy="464.0" r="6" fill="rgb(var(--color-surface-muted))"/><circle cx="546.0" cy="464.0" r="6" fill="rgb(var(--color-surface-muted))"/><circle cx="564.0" cy="464.0" r="6" fill="rgb(var(--color-surface-muted))"/><circle cx="582.0" cy="464.0" r="6" fill="rgb(var(--color-surface-muted))"/><circle cx="492.0" cy="482.0" r="6" fill="rgb(var(--color-surface-muted))"/><circle cx="510.0" cy="482.0" r="6" fill="rgb(var(--color-surface-muted))"/><circle cx="528.0" cy="482.0" r="6" fill="rgb(var(--color-surface-muted))"/><circle cx="546.0" cy="482.0" r="6" fill="rgb(var(--color-surface-muted))"/><circle cx="564.0" cy="482.0" r="6" fill="rgb(var(--color-surface-muted))"/><circle cx="582.0" cy="482.0" r="6" fill="rgb(var(--color-surface-muted))"/><circle cx="492.0" cy="500.0" r="6" fill="rgb(var(--color-surface-muted))"/><circle cx="510.0" cy="500.0" r="6" fill="rgb(var(--color-surface-muted))"/><circle cx="528.0" cy="500.0" r="6" fill="rgb(var(--color-surface-muted))"/><circle cx="546.0" cy="500.0" r="6" fill="rgb(var(--color-surface-muted))"/><circle cx="564.0" cy="500.0" r="6" fill="rgb(var(--color-surface-muted))"/><circle cx="582.0" cy="500.0" r="6" fill="rgb(var(--color-surface-muted))"/><circle cx="492.0" cy="518.0" r="6" fill="rgb(var(--color-surface-muted))"/><circle cx="510.0" cy="518.0" r="6" fill="rgb(var(--color-surface-muted))"/><circle cx="528.0" cy="518.0" r="6" fill="rgb(var(--color-surface-muted))"/><circle cx="546.0" cy="518.0" r="6" fill="rgb(var(--color-surface-muted))"/><circle cx="564.0" cy="518.0" r="6" fill="rgb(var(--color-surface-muted))"/><circle cx="582.0" cy="518.0" r="6" fill="rgb(var(--color-surface-muted))"/><circle cx="492.0" cy="536.0" r="6" fill="rgb(var(--color-surface-muted))"/><circle cx="492.0" cy="626.0" r="6" fill="rgb(var(--color-surface-muted))"/><circle cx="510.0" cy="626.0" r="6" fill="rgb(var(--color-surface-muted))"/><circle cx="528.0" cy="626.0" r="6" fill="rgb(var(--color-surface-muted))"/><circle cx="546.0" cy="626.0" r="6" fill="rgb(var(--color-surface-muted))"/><circle cx="564.0" cy="626.0" r="6" fill="rgb(var(--color-surface-muted))"/><circle cx="582.0" cy="626.0" r="6" fill="rgb(var(--color-surface-muted))"/><circle cx="492.0" cy="644.0" r="6" fill="rgb(var(--color-surface-muted))"/><circle cx="510.0" cy="644.0" r="6" fill="rgb(var(--color-surface-muted))"/><circle cx="528.0" cy="644.0" r="6" fill="rgb(var(--color-surface-muted))"/><circle cx="546.0" cy="644.0" r="6" fill="rgb(var(--color-surface-muted))"/><circle cx="564.0" cy="644.0" r="6" fill="rgb(var(--color-surface-muted))"/><circle cx="582.0" cy="644.0" r="6" fill="rgb(var(--color-surface-muted))"/><circle cx="492.0" cy="662.0" r="6" fill="rgb(var(--color-surface-muted))"/><circle cx="510.0" cy="662.0" r="6" fill="rgb(var(--color-surface-muted))"/><circle cx="528.0" cy="662.0" r="6" fill="rgb(var(--color-surface-muted))"/><circle cx="546.0" cy="662.0" r="6" fill="rgb(var(--color-surface-muted))"/><circle cx="564.0" cy="662.0" r="6" fill="rgb(var(--color-surface-muted))"/><circle cx="582.0" cy="662.0" r="6" fill="rgb(var(--color-surface-muted))"/><circle cx="492.0" cy="680.0" r="6" fill="rgb(var(--color-surface-muted))"/><circle cx="510.0" cy="680.0" r="6" fill="rgb(var(--color-surface-muted))"/><circle cx="528.0" cy="680.0" r="6" fill="rgb(var(--color-surface-muted))"/><circle cx="546.0" cy="680.0" r="6" fill="rgb(var(--color-surface-muted))"/><circle cx="564.0" cy="680.0" r="6" fill="rgb(var(--color-surface-muted))"/><circle cx="712.0" cy="104.0" r="6" fill="rgb(var(--color-surface-muted))"/><circle cx="730.0" cy="104.0" r="6" fill="rgb(var(--color-surface-muted))"/><circle cx="748.0" cy="104.0" r="6" fill="rgb(var(--color-surface-muted))"/><circle cx="766.0" cy="104.0" r="6" fill="rgb(var(--color-surface-muted))"/><circle cx="784.0" cy="104.0" r="6" fill="rgb(var(--color-surface-muted))"/><circle cx="802.0" cy="104.0" r="6" fill="rgb(var(--color-surface-muted))"/><circle cx="712.0" cy="122.0" r="6" fill="rgb(var(--color-surface-muted))"/><circle cx="730.0" cy="122.0" r="6" fill="rgb(var(--color-surface-muted))"/><circle cx="748.0" cy="122.0" r="6" fill="rgb(var(--color-surface-muted))"/><circle cx="766.0" cy="122.0" r="6" fill="rgb(var(--color-surface-muted))"/><circle cx="784.0" cy="122.0" r="6" fill="rgb(var(--color-surface-muted))"/><circle cx="802.0" cy="122.0" r="6" fill="rgb(var(--color-surface-muted))"/><circle cx="712.0" cy="140.0" r="6" fill="rgb(var(--color-surface-muted))"/><circle cx="730.0" cy="140.0" r="6" fill="rgb(var(--color-surface-muted))"/><circle cx="748.0" cy="140.0" r="6" fill="rgb(var(--color-surface-muted))"/><circle cx="766.0" cy="140.0" r="6" fill="rgb(var(--color-surface-muted))"/><circle cx="784.0" cy="140.0" r="6" fill="rgb(var(--color-surface-muted))"/><circle cx="802.0" cy="140.0" r="6" fill="rgb(var(--color-surface-muted))"/><circle cx="712.0" cy="158.0" r="6" fill="rgb(var(--color-surface-muted))"/><circle cx="730.0" cy="158.0" r="6" fill="rgb(var(--color-surface-muted))"/><circle cx="748.0" cy="158.0" r="6" fill="rgb(var(--color-surface-muted))"/><circle cx="766.0" cy="158.0" r="6" fill="rgb(var(--color-surface-muted))"/><circle cx="784.0" cy="158.0" r="6" fill="rgb(var(--color-surface-muted))"/><circle cx="802.0" cy="158.0" r="6" fill="rgb(var(--color-surface-muted))"/><circle cx="712.0" cy="176.0" r="6" fill="rgb(var(--color-surface-muted))"/><circle cx="730.0" cy="176.0" r="6" fill="rgb(var(--color-surface-muted))"/><circle cx="748.0" cy="176.0" r="6" fill="rgb(var(--color-surface-muted))"/><circle cx="766.0" cy="176.0" r="6" fill="rgb(var(--color-surface-muted))"/><circle cx="784.0" cy="176.0" r="6" fill="rgb(var(--color-surface-muted))"/><circle cx="802.0" cy="176.0" r="6" fill="rgb(var(--color-surface-muted))"/><circle cx="712.0" cy="194.0" r="6" fill="rgb(var(--color-surface-muted))"/><circle cx="730.0" cy="194.0" r="6" fill="rgb(var(--color-surface-muted))"/><circle cx="748.0" cy="194.0" r="6" fill="rgb(var(--color-surface-muted))"/><circle cx="766.0" cy="194.0" r="6" fill="rgb(var(--color-surface-muted))"/><circle cx="784.0" cy="194.0" r="6" fill="rgb(var(--color-surface-muted))"/><circle cx="802.0" cy="194.0" r="6" fill="rgb(var(--color-surface-muted))"/><circle cx="712.0" cy="212.0" r="6" fill="rgb(var(--color-surface-muted))"/><circle cx="730.0" cy="212.0" r="6" fill="rgb(var(--color-surface-muted))"/><circle cx="748.0" cy="212.0" r="6" fill="rgb(var(--color-surface-muted))"/><circle cx="766.0" cy="212.0" r="6" fill="rgb(var(--color-surface-muted))"/><circle cx="784.0" cy="212.0" r="6" fill="rgb(var(--color-surface-muted))"/><circle cx="802.0" cy="212.0" r="6" fill="rgb(var(--color-surface-muted))"/><circle cx="712.0" cy="230.0" r="6" fill="rgb(var(--color-surface-muted))"/><circle cx="730.0" cy="230.0" r="6" fill="rgb(var(--color-surface-muted))"/><circle cx="748.0" cy="230.0" r="6" fill="rgb(var(--color-surface-muted))"/><circle cx="766.0" cy="230.0" r="6" fill="rgb(var(--color-surface-muted))"/><circle cx="784.0" cy="230.0" r="6" fill="rgb(var(--color-surface-muted))"/></g>
</svg>
