<?xml version="1.0" encoding="UTF-8"?>
<svg xmlns="http://www.w3.org/2000/svg" viewBox="0 0 998 762" width="100%" height="auto" style="max-width:998px;height:auto;display:block" role="img" aria-labelledby="etta-map-title etta-map-desc" preserveAspectRatio="xMidYMid meet">
  <title id="etta-map-title">Etta curriculum map</title>
  <desc id="etta-map-desc">Etta curriculum across 12 domains in 4 phases. Phase 1 · Foundations; Phase 2 · Calculus &amp; Linear Algebra; Phase 3 · Classical &amp; Modern Physics; Phase 4 · Astrophysics. Domains: Algebra (56 concepts, phase 1), Pre-Calculus (25 concepts, phase 1), Trigonometry (28 concepts, phase 1), Differential Equations (27 concepts, phase 2), Linear Algebra (30 concepts, phase 2), Multivariable Calculus (33 concepts, phase 2), Single-Variable Calculus (43 concepts, phase 2), Classical Mechanics (33 concepts, phase 3), Electromagnetism (26 concepts, phase 3), Quantum Mechanics (31 concepts, phase 3), Thermodynamics &amp; Statistical Mechanics (23 concepts, phase 3), Astrophysics (47 concepts, phase 4).</desc>
  <g class="etta-map-edges">
<path d="M32.0,460.0 C-4.0,460.0 -4.0,316.0 32.0,316.0" fill="none" stroke="rgb(var(--color-surface-border))" stroke-width="1.5" opacity="0.7"/>
<path d="M32.0,145.0 C-4.0,145.0 -4.0,460.0 32.0,460.0" fill="none" stroke="rgb(var(--color-surface-border))" stroke-width="1.5" opacity="0.7"/>
<path d="M288.0,621.0 C252.0,621.0 252.0,125.0 288.0,125.0" fill="none" stroke="rgb(var(--color-surface-border))" stroke-width="1.5" opacity="0.7"/>
<path d="M288.0,621.0 C252.0,621.0 252.0,276.0 288.0,276.0" fill="none" stroke="rgb(var(--color-surface-border))" stroke-width="1.5" opacity="0.7"/>
<path d="M288.0,621.0 C252.0,621.0 252.0,436.0 288.0,436.0" fill="none" stroke="rgb(var(--color-surface-border))" stroke-width="1.5" opacity="0.7"/>
<path d="M198.0,316.0 C243.0,316.0 243.0,621.0 288.0,621.0" fill="none" stroke="rgb(var(--color-surface-border))" stroke-width="1.5" opacity="0.7"/>
<path d="M454.0,436.0 C499.0,436.0 499.0,127.0 544.0,127.0" fill="none" stroke="rgb(var(--color-surface-border))" stroke-width="1.5" opacity="0.7"/>
<path d="M454.0,436.0 C499.0,436.0 499.0,280.0 544.0,280.0" fill="none" stroke="rgb(var(--color-surface-border))" stroke-width="1.5" opacity="0.7"/>
<path d="M454.0,276.0 C499.0,276.0 499.0,424.0 544.0,424.0" fill="none" stroke="rgb(var(--color-surface-border))" stroke-width="1.5" opacity="0.7"/>
<path d="M454.0,436.0 C499.0,436.0 499.0,566.0 544.0,566.0" fill="none" stroke="rgb(var(--color-surface-border))" stroke-width="1.5" opacity="0.7"/>
<path d="M710.0,127.0 C755.0,127.0 755.0,136.0 800.0,136.0" fill="none" stroke="rgb(var(--color-surface-border))" stroke-width="1.5" opacity="0.7"/>
  </g>
  <g class="etta-map-phase-titles">
<text x="32" y="26" font-size="13" font-weight="600" fill="rgb(var(--color-text))">Phase 1 · Foundations</text>
<text x="288" y="26" font-size="13" font-weight="600" fill="rgb(var(--color-text))">Phase 2 · Calculus &amp; Linear Algebra</text>
<text x="544" y="26" font-size="13" font-weight="600" fill="rgb(var(--color-text))">Phase 3 · Classical &amp; Modern Physics</text>
<text x="800" y="26" font-size="13" font-weight="600" fill="rgb(var(--color-text))">Phase 4 · Astrophysics</text>
  </g>
  <g class="etta-map-cards">
<g><rect x="32" y="58" width="166" height="174" rx="10" fill="rgb(var(--color-surface-raised))" stroke="rgb(var(--color-surface-border))" stroke-width="1"/><text x="46" y="75" font-size="11" font-weight="600" fill="rgb(var(--color-text))">Algebra</text></g>
<g><rect x="32" y="256" width="166" height="120" rx="10" fill="rgb(var(--color-surface-raised))" stroke="rgb(var(--color-surface-border))" stroke-width="1"/><text x="46" y="273" font-size="11" font-weight="600" fill="rgb(var(--color-text))">Pre-Calculus</text></g>
<g><rect x="32" y="400" width="166" height="120" rx="10" fill="rgb(var(--color-surface-raised))" stroke="rgb(var(--color-surface-border))" stroke-width="1"/><text x="46" y="417" font-size="11" font-weight="600" fill="rgb(var(--color-text))">Trigonometry</text></g>
<g><rect x="288" y="58" width="166" height="134" rx="10" fill="rgb(var(--color-surface-raised))" stroke="rgb(var(--color-surface-border))" stroke-width="1"/><text x="302" y="75" font-size="11" font-weight="600" fill="rgb(var(--color-text))">Differential</text><text x="302" y="89" font-size="11" font-weight="600" fill="rgb(var(--color-text))">Equations</text></g>
<g><rect x="288" y="216" width="166" height="120" rx="10" fill="rgb(var(--color-surface-raised))" stroke="rgb(var(--color-surface-border))" stroke-width="1"/><text x="302" y="233" font-size="11" font-weight="600" fill="rgb(var(--color-text))">Linear Algebra</text></g>
<g><rect x="288" y="360" width="166" height="152" rx="10" fill="rgb(var(--color-surface-raised))" stroke="rgb(var(--color-surface-border))" stroke-width="1"/><text x="302" y="377" font-size="11" font-weight="600" fill="rgb(var(--color-text))">Multivariable</text><text x="302" y="391" font-size="11" font-weight="600" fill="rgb(var(--color-text))">Calculus</text></g>
<g><rect x="288" y="536" width="166" height="170" rx="10" fill="rgb(var(--color-surface-raised))" stroke="rgb(var(--color-surface-border))" stroke-width="1"/><text x="302" y="553" font-size="11" font-weight="600" fill="rgb(var(--color-text))">Single-Variable</text><text x="302" y="567" font-size="11" font-weight="600" fill="rgb(var(--color-text))">Calculus</text></g>
<g><rect x="544" y="58" width="166" height="138" rx="10" fill="rgb(var(--color-surface-raised))" stroke="rgb(var(--color-surface-border))" stroke-width="1"/><text x="558" y="75" font-size="11" font-weight="600" fill="rgb(var(--color-text))">Classical Mechanics</text></g>
<g><rect x="544" y="220" width="166" height="120" rx="10" fill="rgb(var(--color-surface-raised))" stroke="rgb(var(--color-surface-border))" stroke-width="1"/><text x="558" y="237" font-size="11" font-weight="600" fill="rgb(var(--color-text))">Electromagnetism</text></g>
<g><rect x="544" y="364" width="166" height="120" rx="10" fill="rgb(var(--color-surface-raised))" stroke="rgb(var(--color-surface-border))" stroke-width="1"/><text x="558" y="381" font-size="11" font-weight="600" fill="rgb(var(--color-text))">Quantum Mechanics</text></g>
<g><rect x="544" y="508" width="166" height="116" rx="10" fill="rgb(var(--color-surface-raised))" stroke="rgb(var(--color-surface-border))" stroke-width="1"/><text x="558" y="525" font-size="11" font-weight="600" fill="rgb(var(--color-text))">Thermodynamics &amp;</text><text x="558" y="539" font-size="11" font-weight="600" fill="rgb(var(--color-text))">Statistical Mechanics</text></g>
<g><rect x="800" y="58" width="166" height="156" rx="10" fill="rgb(var(--color-surface-raised))" stroke="rgb(var(--color-surface-border))" stroke-width="1"/><text x="814" y="75" font-size="11" font-weight="600" fill="rgb(var(--color-text))">Astrophysics</text></g>
  </g>
  <g class="etta-map-nodes"><circle cx="52.0" cy="104.0" r="6" fill="rgb(var(--color-surface-muted))"/><circle cx="70.0" cy="104.0" r="6" fill="rgb(var(--color-surface-muted))"/><circle cx="88.0" cy="104.0" r="6" fill="rgb(var(--color-surface-muted))"/><circle cx="106.0" cy="104.0" r="6" fill="rgb(var(--color-surface-muted))"/><circle cx="124.0" cy="104.0" r="6" fill="rgb(var(--color-surface-muted))"/><circle cx="142.0" cy="104.0" r="6" fill="rgb(var(--color-surface-muted))"/><circle cx="160.0" cy="104.0" r="6" fill="rgb(var(--color-surface-muted))"/><circle cx="178.0" cy="104.0" r="6" fill="rgb(var(--color-surface-muted))"/><circle cx="52.0" cy="122.0" r="6" fill="rgb(var(--color-surface-muted))"/><circle cx="70.0" cy="122.0" r="6" fill="rgb(var(--color-surface-muted))"/><circle cx="88.0" cy="122.0" r="6" fill="rgb(var(--color-surface-muted))"/><circle cx="106.0" cy="122.0" r="6" fill="rgb(var(--color-surface-muted))"/><circle cx="124.0" cy="122.0" r="6" fill="rgb(var(--color-surface-muted))"/><circle cx="142.0" cy="122.0" r="6" fill="rgb(var(--color-surface-muted))"/><circle cx="160.0" cy="122.0" r="6" fill="rgb(var(--color-surface-muted))"/><circle cx="178.0" cy="122.0" r="6" fill="rgb(var(--color-surface-muted))"/><circle cx="52.0" cy="140.0" r="6" fill="rgb(var(--color-surface-muted))"/><circle cx="70.0" cy="140.0" r="6" fill="rgb(var(--color-surface-muted))"/><circle cx="88.0" cy="140.0" r="6" fill="rgb(var(--color-surface-muted))"/><circle cx="106.0" cy="140.0" r="6" fill="rgb(var(--color-surface-muted))"/><circle cx="124.0" cy="140.0" r="6" fill="rgb(var(--color-surface-muted))"/><circle cx="142.0" cy="140.0" r="6" fill="rgb(var(--color-surface-muted))"/><circle cx="160.0" cy="140.0" r="6" fill="rgb(var(--color-surface-muted))"/><circle cx="178.0" cy="140.0" r="6" fill="rgb(var(--color-surface-muted))"/><circle cx="52.0" cy="158.0" r="6" fill="rgb(var(--color-surface-muted))"/><circle cx="70.0" cy="158.0" r="6" fill="rgb(var(--color-surface-muted))"/><circle cx="88.0" cy="158.0" r="6" fill="rgb(var(--color-surface-muted))"/><circle cx="106.0" cy="158.0" r="6" fill="rgb(var(--color-surface-muted))"/><circle cx="124.0" cy="158.0" r="6" fill="rgb(var(--color-surface-muted))"/><circle cx="142.0" cy="158.0" r="6" fill="rgb(var(--color-surface-muted))"/><circle cx="160.0" cy="158.0" r="6" fill="rgb(var(--color-surface-muted))"/><circle cx="178.0" cy="158.0" r="6" fill="rgb(var(--color-surface-muted))"/><circle cx="52.0" cy="176.0" r="6" fill="rgb(var(--color-surface-muted))"/><circle cx="70.0" cy="176.0" r="6" fill="rgb(var(--color-surface-muted))"/><circle cx="88.0" cy="176.0" r="6" fill="rgb(var(--color-surface-muted))"/><circle cx="106.0" cy="176.0" r="6" fill="rgb(var(--color-surface-muted))"/><circle cx="124.0" cy="176.0" r="6" fill="rgb(var(--color-surface-muted))"/><circle cx="142.0" cy="176.0" r="6" fill="rgb(var(--color-surface-muted))"/><circle cx="160.0" cy="176.0" r="6" fill="rgb(var(--color-surface-muted))"/><circle cx="178.0" cy="176.0" r="6" fill="rgb(var(--color-surface-muted))"/><circle cx="52.0" cy="194.0" r="6" fill="rgb(var(--color-surface-muted))"/><circle cx="70.0" cy="194.0" r="6" fill="rgb(var(--color-surface-muted))"/><circle cx="88.0" cy="194.0" r="6" fill="rgb(var(--color-surface-muted))"/><circle cx="106.0" cy="194.0" r="6" fill="rgb(var(--color-surface-muted))"/><circle cx="124.0" cy="194.0" r="6" fill="rgb(var(--color-surface-muted))"/><circle cx="142.0" cy="194.0" r="6" fill="rgb(var(--color-surface-muted))"/><circle cx="160.0" cy="194.0" r="6" fill="rgb(var(--color-surface-muted))"/><circle cx="178.0" cy="194.0" r="6" fill="rgb(var(--color-surface-muted))"/><circle cx="52.0" cy="212.0" r="6" fill="rgb(var(--color-surface-muted))"/><circle cx="70.0" cy="212.0" r="6" fill="rgb(var(--color-surface-muted))"/><circle cx="88.0" cy="212.0" r="6" fill="rgb(var(--color-surface-muted))"/><circle cx="106.0" cy="212.0" r="6" fill="rgb(var(--color-surface-muted))"/><circle cx="124.0" cy="212.0" r="6" fill="rgb(var(--color-surface-muted))"/><circle cx="142.0" cy="212.0" r="6" fill="rgb(var(--color-surface-muted))"/><circle cx="160.0" cy="212.0" r="6" fill="rgb(var(--color-surface-muted))"/><circle cx="178.0" cy="212.0" r="6" fill="rgb(var(--color-surface-muted))"/><circle cx="52.0" cy="302.0" r="6" fill="rgb(var(--color-surface-muted))"/><circle cx="70.0" cy="302.0" r="6" fill="rgb(var(--color-surface-muted))"/><circle cx="88.0" cy="302.0" r="6" fill="rgb(var(--color-surface-muted))"/><circle cx="106.0" cy="302.0" r="6" fill="rgb(var(--color-surface-muted))"/><circle cx="124.0" cy="302.0" r="6" fill="rgb(var(--color-surface-muted))"/><circle cx="142.0" cy="302.0" r="6" fill="rgb(var(--color-surface-muted))"/><circle cx="160.0" cy="302.0" r="6" fill="rgb(var(--color-surface-muted))"/><circle cx="178.0" cy="302.0" r="6" fill="rgb(var(--color-surface-muted))"/><circle cx="52.0" cy="320.0" r="6" fill="rgb(var(--color-surface-muted))"/><circle cx="70.0" cy="320.0" r="6" fill="rgb(var(--color-surface-muted))"/><circle cx="88.0" cy="320.0" r="6" fill="rgb(var(--color-surface-muted))"/><circle cx="106.0" cy="320.0" r="6" fill="rgb(var(--color-surface-muted))"/><circle cx="124.0" cy="320.0" r="6" fill="rgb(var(--color-surface-muted))"/><circle cx="142.0" cy="320.0" r="6" fill="rgb(var(--color-surface-muted))"/><circle cx="160.0" cy="320.0" r="6" fill="rgb(var(--color-surface-muted))"/><circle cx="178.0" cy="320.0" r="6" fill="rgb(var(--color-surface-muted))"/><circle cx="52.0" cy="338.0" r="6" fill="rgb(var(--color-surface-muted))"/><circle cx="70.0" cy="338.0" r="6" fill="rgb(var(--color-surface-muted))"/><circle cx="88.0" cy="338.0" r="6" fill="rgb(var(--color-surface-muted))"/><circle cx="106.0" cy="338.0" r="6" fill="rgb(var(--color-surface-muted))"/><circle cx="124.0" cy="338.0" r="6" fill="rgb(var(--color-surface-muted))"/><circle cx="142.0" cy="338.0" r="6" fill="rgb(var(--color-surface-muted))"/><circle cx="160.0" cy="338.0" r="6" fill="rgb(var(--color-surface-muted))"/><circle cx="178.0" cy="338.0" r="6" fill="rgb(var(--color-surface-muted))"/><circle cx="52.0" cy="356.0" r="6" fill="rgb(var(--color-surface-muted))"/><circle cx="52.0" cy="446.0" r="6" fill="rgb(var(--color-surface-muted))"/><circle cx="70.0" cy="446.0" r="6" fill="rgb(var(--color-surface-muted))"/><circle cx="88.0" cy="446.0" r="6" fill="rgb(var(--color-surface-muted))"/><circle cx="106.0" cy="446.0" r="6" fill="rgb(var(--color-surface-muted))"/><circle cx="124.0" cy="446.0" r="6" fill="rgb(var(--color-surface-muted))"/><circle cx="142.0" cy="446.0" r="6" fill="rgb(var(--color-surface-muted))"/><circle cx="160.0" cy="446.0" r="6" fill="rgb(var(--color-surface-muted))"/><circle cx="178.0" cy="446.0" r="6" fill="rgb(var(--color-surface-muted))"/><circle cx="52.0" cy="464.0" r="6" fill="rgb(var(--color-surface-muted))"/><circle cx="70.0" cy="464.0" r="6" fill="rgb(var(--color-surface-muted))"/><circle cx="88.0" cy="464.0" r="6" fill="rgb(var(--color-surface-muted))"/><circle cx="106.0" cy="464.0" r="6" fill="rgb(var(--color-surface-muted))"/><circle cx="124.0" cy="464.0" r="6" fill="rgb(var(--color-surface-muted))"/><circle cx="142.0" cy="464.0" r="6" fill="rgb(var(--color-surface-muted))"/><circle cx="160.0" cy="464.0" r="6" fill="rgb(var(--color-surface-muted))"/><circle cx="178.0" cy="464.0" r="6" fill="rgb(var(--color-surface-muted))"/><circle cx="52.0" cy="482.0" r="6" fill="rgb(var(--color-surface-muted))"/><circle cx="70.0" cy="482.0" r="6" fill="rgb(var(--color-surface-muted))"/><circle cx="88.0" cy="482.0" r="6" fill="rgb(var(--color-surface-muted))"/><circle cx="106.0" cy="482.0" r="6" fill="rgb(var(--color-surface-muted))"/><circle cx="124.0" cy="482.0" r="6" fill="rgb(var(--color-surface-muted))"/><circle cx="142.0" cy="482.0" r="6" fill="rgb(var(--color-surface-muted))"/><circle cx="160.0" cy="482.0" r="6" fill="rgb(var(--color-surface-muted))"/><circle cx="178.0" cy="482.0" r="6" fill="rgb(var(--color-surface-muted))"/><circle cx="52.0" cy="500.0" r="6" fill="rgb(var(--color-surface-muted))"/><circle cx="70.0" cy="500.0" r="6" fill="rgb(var(--color-surface-muted))"/><circle cx="88.0" cy="500.0" r="6" fill="rgb(var(--color-surface-muted))"/><circle cx="106.0" cy="500.0" r="6" fill="rgb(var(--color-surface-muted))"/><circle cx="308.0" cy="118.0" r="6" fill="rgb(var(--color-surface-muted))"/><circle cx="326.0" cy="118.0" r="6" fill="rgb(var(--color-surface-muted))"/><circle cx="344.0" cy="118.0" r="6" fill="rgb(var(--color-surface-muted))"/><circle cx="362.0" cy="118.0" r="6" fill="rgb(var(--color-surface-muted))"/><circle cx="380.0" cy="118.0" r="6" fill="rgb(var(--color-surface-muted))"/><circle cx="398.0" cy="118.0" r="6" fill="rgb(var(--color-surface-muted))"/><circle cx="416.0" cy="118.0" r="6" fill="rgb(var(--color-surface-muted))"/><circle cx="434.0" cy="118.0" r="6" fill="rgb(var(--color-surface-muted))"/><circle cx="308.0" cy="136.0" r="6" fill="rgb(var(--color-surface-muted))"/><circle cx="326.0" cy="136.0" r="6" fill="rgb(var(--color-surface-muted))"/><circle cx="344.0" cy="136.0" r="6" fill="rgb(var(--color-surface-muted))"/><circle cx="362.0" cy="136.0" r="6" fill="rgb(var(--color-surface-muted))"/><circle cx="380.0" cy="136.0" r="6" fill="rgb(var(--color-surface-muted))"/><circle cx="398.0" cy="136.0" r="6" fill="rgb(var(--color-surface-muted))"/><circle cx="416.0" cy="136.0" r="6" fill="rgb(var(--color-surface-muted))"/><circle cx="434.0" cy="136.0" r="6" fill="rgb(var(--color-surface-muted))"/><circle cx="308.0" cy="154.0" r="6" fill="rgb(var(--color-surface-muted))"/><circle cx="326.0" cy="154.0" r="6" fill="rgb(var(--color-surface-muted))"/><circle cx="344.0" cy="154.0" r="6" fill="rgb(var(--color-surface-muted))"/><circle cx="362.0" cy="154.0" r="6" fill="rgb(var(--color-surface-muted))"/><circle cx="380.0" cy="154.0" r="6" fill="rgb(var(--color-surface-muted))"/><circle cx="398.0" cy="154.0" r="6" fill="rgb(var(--color-surface-muted))"/><circle cx="416.0" cy="154.0" r="6" fill="rgb(var(--color-surface-muted))"/><circle cx="434.0" cy="154.0" r="6" fill="rgb(var(--color-surface-muted))"/><circle cx="308.0" cy="172.0" r="6" fill="rgb(var(--color-surface-muted))"/><circle cx="326.0" cy="172.0" r="6" fill="rgb(var(--color-surface-muted))"/><circle cx="344.0" cy="172.0" r="6" fill="rgb(var(--color-surface-muted))"/><circle cx="308.0" cy="262.0" r="6" fill="rgb(var(--color-surface-muted))"/><circle cx="326.0" cy="262.0" r="6" fill="rgb(var(--color-surface-muted))"/><circle cx="344.0" cy="262.0" r="6" fill="rgb(var(--color-surface-muted))"/><circle cx="362.0" cy="262.0" r="6" fill="rgb(var(--color-surface-muted))"/><circle cx="380.0" cy="262.0" r="6" fill="rgb(var(--color-surface-muted))"/><circle cx="398.0" cy="262.0" r="6" fill="rgb(var(--color-surface-muted))"/><circle cx="416.0" cy="262.0" r="6" fill="rgb(var(--color-surface-muted))"/><circle cx="434.0" cy="262.0" r="6" fill="rgb(var(--color-surface-muted))"/><circle cx="308.0" cy="280.0" r="6" fill="rgb(var(--color-surface-muted))"/><circle cx="326.0" cy="280.0" r="6" fill="rgb(var(--color-surface-muted))"/><circle cx="344.0" cy="280.0" r="6" fill="rgb(var(--color-surface-muted))"/><circle cx="362.0" cy="280.0" r="6" fill="rgb(var(--color-surface-muted))"/><circle cx="380.0" cy="280.0" r="6" fill="rgb(var(--color-surface-muted))"/><circle cx="398.0" cy="280.0" r="6" fill="rgb(var(--color-surface-muted))"/><circle cx="416.0" cy="280.0" r="6" fill="rgb(var(--color-surface-muted))"/><circle cx="434.0" cy="280.0" r="6" fill="rgb(var(--color-surface-muted))"/><circle cx="308.0" cy="298.0" r="6" fill="rgb(var(--color-surface-muted))"/><circle cx="326.0" cy="298.0" r="6" fill="rgb(var(--color-surface-muted))"/><circle cx="344.0" cy="298.0" r="6" fill="rgb(var(--color-surface-muted))"/><circle cx="362.0" cy="298.0" r="6" fill="rgb(var(--color-surface-muted))"/><circle cx="380.0" cy="298.0" r="6" fill="rgb(var(--color-surface-muted))"/><circle cx="398.0" cy="298.0" r="6" fill="rgb(var(--color-surface-muted))"/><circle cx="416.0" cy="298.0" r="6" fill="rgb(var(--color-surface-muted))"/><circle cx="434.0" cy="298.0" r="6" fill="rgb(var(--color-surface-muted))"/><circle cx="308.0" cy="316.0" r="6" fill="rgb(var(--color-surface-muted))"/><circle cx="326.0" cy="316.0" r="6" fill="rgb(var(--color-surface-muted))"/><circle cx="344.0" cy="316.0" r="6" fill="rgb(var(--color-surface-muted))"/><circle cx="362.0" cy="316.0" r="6" fill="rgb(var(--color-surface-muted))"/><circle cx="380.0" cy="316.0" r="6" fill="rgb(var(--color-surface-muted))"/><circle cx="398.0" cy="316.0" r="6" fill="rgb(var(--color-surface-muted))"/><circle cx="308.0" cy="420.0" r="6" fill="rgb(var(--color-surface-muted))"/><circle cx="326.0" cy="420.0" r="6" fill="rgb(var(--color-surface-muted))"/><circle cx="344.0" cy="420.0" r="6" fill="rgb(var(--color-surface-muted))"/><circle cx="362.0" cy="420.0" r="6" fill="rgb(var(--color-surface-muted))"/><circle cx="380.0" cy="420.0" r="6" fill="rgb(var(--color-surface-muted))"/><circle cx="398.0" cy="420.0" r="6" fill="rgb(var(--color-surface-muted))"/><circle cx="416.0" cy="420.0" r="6" fill="rgb(var(--color-surface-muted))"/><circle cx="434.0" cy="420.0" r="6" fill="rgb(var(--color-surface-muted))"/><circle cx="308.0" cy="438.0" r="6" fill="rgb(var(--color-surface-muted))"/><circle cx="326.0" cy="438.0" r="6" fill="rgb(var(--color-surface-muted))"/><circle cx="344.0" cy="438.0" r="6" fill="rgb(var(--color-surface-muted))"/><circle cx="362.0" cy="438.0" r="6" fill="rgb(var(--color-surface-muted))"/><circle cx="380.0" cy="438.0" r="6" fill="rgb(var(--color-surface-muted))"/><circle cx="398.0" cy="438.0" r="6" fill="rgb(var(--color-surface-muted))"/><circle cx="416.0" cy="438.0" r="6" fill="rgb(var(--color-surface-muted))"/><circle cx="434.0" cy="438.0" r="6" fill="rgb(var(--color-surface-muted))"/><circle cx="308.0" cy="456.0" r="6" fill="rgb(var(--color-surface-muted))"/><circle cx="326.0" cy="456.0" r="6" fill="rgb(var(--color-surface-muted))"/><circle cx="344.0" cy="456.0" r="6" fill="rgb(var(--color-surface-muted))"/><circle cx="362.0" cy="456.0" r="6" fill="rgb(var(--color-surface-muted))"/><circle cx="380.0" cy="456.0" r="6" fill="rgb(var(--color-surface-muted))"/><circle cx="398.0" cy="456.0" r="6" fill="rgb(var(--color-surface-muted))"/><circle cx="416.0" cy="456.0" r="6" fill="rgb(var(--color-surface-muted))"/><circle cx="434.0" cy="456.0" r="6" fill="rgb(var(--color-surface-muted))"/><circle cx="308.0" cy="474.0" r="6" fill="rgb(var(--color-surface-muted))"/><circle cx="326.0" cy="474.0" r="6" fill="rgb(var(--color-surface-muted))"/><circle cx="344.0" cy="474.0" r="6" fill="rgb(var(--color-surface-muted))"/><circle cx="362.0" cy="474.0" r="6" fill="rgb(var(--color-surface-muted))"/><circle cx="380.0" cy="474.0" r="6" fill="rgb(var(--color-surface-muted))"/><circle cx="398.0" cy="474.0" r="6" fill="rgb(var(--color-surface-muted))"/><circle cx="416.0" cy="474.0" r="6" fill="rgb(var(--color-surface-muted))"/><circle cx="434.0" cy="474.0" r="6" fill="rgb(var(--color-surface-muted))"/><circle cx="308.0" cy="492.0" r="6" fill="rgb(var(--color-surface-muted))"/><circle cx="308.0" cy="596.0" r="6" fill="rgb(var(--color-surface-muted))"/><circle cx="326.0" cy="596.0" r="6" fill="rgb(var(--color-surface-muted))"/><circle cx="344.0" cy="596.0" r="6" fill="rgb(var(--color-surface-muted))"/><circle cx="362.0" cy="596.0" r="6" fill="rgb(var(--color-surface-muted))"/><circle cx="380.0" cy="596.0" r="6" fill="rgb(var(--color-surface-muted))"/><circle cx="398.0" cy="596.0" r="6" fill="rgb(var(--color-surface-muted))"/><circle cx="416.0" cy="596.0" r="6" fill="rgb(var(--color-surface-muted))"/><circle cx="434.0" cy="596.0" r="6" fill="rgb(var(--color-surface-muted))"/><circle cx="308.0" cy="614.0" r="6" fill="rgb(var(--color-surface-muted))"/><circle cx="326.0" cy="614.0" r="6" fill="rgb(var(--color-surface-muted))"/><circle cx="344.0" cy="614.0" r="6" fill="rgb(var(--color-surface-muted))"/><circle cx="362.0" cy="614.0" r="6" fill="rgb(var(--color-surface-muted))"/><circle cx="380.0" cy="614.0" r="6" fill="rgb(var(--color-surface-muted))"/><circle cx="398.0" cy="614.0" r="6" fill="rgb(var(--color-surface-muted))"/><circle cx="416.0" cy="614.0" r="6" fill="rgb(var(--color-surface-muted))"/><circle cx="434.0" cy="614.0" r="6" fill="rgb(var(--color-surface-muted))"/><circle cx="308.0" cy="632.0" r="6" fill="rgb(var(--color-surface-muted))"/><circle cx="326.0" cy="632.0" r="6" fill="rgb(var(--color-surface-muted))"/><circle cx="344.0" cy="632.0" r="6" fill="rgb(var(--color-surface-muted))"/><circle cx="362.0" cy="632.0" r="6" fill="rgb(var(--color-surface-muted))"/><circle cx="380.0" cy="632.0" r="6" fill="rgb(var(--color-surface-muted))"/><circle cx="398.0" cy="632.0" r="6" fill="rgb(var(--color-surface-muted))"/><circle cx="416.0" cy="632.0" r="6" fill="rgb(var(--color-surface-muted))"/><circle cx="434.0" cy="632.0" r="6" fill="rgb(var(--color-surface-muted))"/><circle cx="308.0" cy="650.0" r="6" fill="rgb(var(--color-surface-muted))"/><circle cx="326.0" cy="650.0" r="6" fill="rgb(var(--color-surface-muted))"/><circle cx="344.0" cy="650.0" r="6" fill="rgb(var(--color-surface-muted))"/><circle cx="362.0" cy="650.0" r="6" fill="rgb(var(--color-surface-muted))"/><circle cx="380.0" cy="650.0" r="6" fill="rgb(var(--color-surface-muted))"/><circle cx="398.0" cy="650.0" r="6" fill="rgb(var(--color-surface-muted))"/><circle cx="416.0" cy="650.0" r="6" fill="rgb(var(--color-surface-muted))"/><circle cx="434.0" cy="650.0" r="6" fill="rgb(var(--color-surface-muted))"/><circle cx="308.0" cy="668.0" r="6" fill="rgb(var(--color-surface-muted))"/><circle cx="326.0" cy="668.0" r="6" fill="rgb(var(--color-surface-muted))"/><circle cx="344.0" cy="668.0" r="6" fill="rgb(var(--color-surface-muted))"/><circle cx="362.0" cy="668.0" r="6" fill="rgb(var(--color-surface-muted))"/><circle cx="380.0" cy="668.0" r="6" fill="rgb(var(--color-surface-muted))"/><circle cx="398.0" cy="668.0" r="6" fill="rgb(var(--color-surface-muted))"/><circle cx="416.0" cy="668.0" r="6" fill="rgb(var(--color-surface-muted))"/><circle cx="434.0" cy="668.0" r="6" fill="rgb(var(--color-surface-muted))"/><circle cx="308.0" cy="686.0" r="6" fill="rgb(var(--color-surface-muted))"/><circle cx="326.0" cy="686.0" r="6" fill="rgb(var(--color-surface-muted))"/><circle cx="344.0" cy="686.0" r="6" fill="rgb(var(--color-surface-muted))"/><circle cx="564.0" cy="104.0" r="6" fill="rgb(var(--color-surface-muted))"/><circle cx="582.0" cy="104.0" r="6" fill="rgb(var(--color-surface-muted))"/><circle cx="600.0" cy="104.0" r="6" fill="rgb(var(--color-surface-muted))"/><circle cx="618.0" cy="104.0" r="6" fill="rgb(var(--color-surface-muted))"/><circle cx="636.0" cy="104.0" r="6" fill="rgb(var(--color-surface-muted))"/><circle cx="654.0" cy="104.0" r="6" fill="rgb(var(--color-surface-muted))"/><circle cx="672.0" cy="104.0" r="6" fill="rgb(var(--color-surface-muted))"/><circle cx="690.0" cy="104.0" r="6" fill="rgb(var(--color-surface-muted))"/><circle cx="564.0" cy="122.0" r="6" fill="rgb(var(--color-surface-muted))"/><circle cx="582.0" cy="122.0" r="6" fill="rgb(var(--color-surface-muted))"/><circle cx="600.0" cy="122.0" r="6" fill="rgb(var(--color-surface-muted))"/><circle cx="618.0" cy="122.0" r="6" fill="rgb(var(--color-surface-muted))"/><circle cx="636.0" cy="122.0" r="6" fill="rgb(var(--color-surface-muted))"/><circle cx="654.0" cy="122.0" r="6" fill="rgb(var(--color-surface-muted))"/><circle cx="672.0" cy="122.0" r="6" fill="rgb(var(--color-surface-muted))"/><circle cx="690.0" cy="122.0" r="6" fill="rgb(var(--color-surface-muted))"/><circle cx="564.0" cy="140.0" r="6" fill="rgb(var(--color-surface-muted))"/><circle cx="582.0" cy="140.0" r="6" fill="rgb(var(--color-surface-muted))"/><circle cx="600.0" cy="140.0" r="6" fill="rgb(var(--color-surface-muted))"/><circle cx="618.0" cy="140.0" r="6" fill="rgb(var(--color-surface-muted))"/><circle cx="636.0" cy="140.0" r="6" fill="rgb(var(--color-surface-muted))"/><circle cx="654.0" cy="140.0" r="6" fill="rgb(var(--color-surface-muted))"/><circle cx="672.0" cy="140.0" r="6" fill="rgb(var(--color-surface-muted))"/><circle cx="690.0" cy="140.0" r="6" fill="rgb(var(--color-surface-muted))"/><circle cx="564.0" cy="158.0" r="6" fill="rgb(var(--color-surface-muted))"/><circle cx="582.0" cy="158.0" r="6" fill="rgb(var(--color-surface-muted))"/><circle cx="600.0" cy="158.0" r="6" fill="rgb(var(--color-surface-muted))"/><circle cx="618.0" cy="158.0" r="6" fill="rgb(var(--color-surface-muted))"/><circle cx="636.0" cy="158.0" r="6" fill="rgb(var(--color-surface-muted))"/><circle cx="654.0" cy="158.0" r="6" fill="rgb(var(--color-surface-muted))"/><circle cx="672.0" cy="158.0" r="6" fill="rgb(var(--color-surface-muted))"/><circle cx="690.0" cy="158.0" r="6" fill="rgb(var(--color-surface-muted))"/><circle cx="564.0" cy="176.0" r="6" fill="rgb(var(--color-surface-muted))"/><circle cx="564.0" cy="266.0" r="6" fill="rgb(var(--color-surface-muted))"/><circle cx="582.0" cy="266.0" r="6" fill="rgb(var(--color-surface-muted))"/><circle cx="600.0" cy="266.0" r="6" fill="rgb(var(--color-surface-muted))"/><circle cx="618.0" cy="266.0" r="6" fill="rgb(var(--color-surface-muted))"/><circle cx="636.0" cy="266.0" r="6" fill="rgb(var(--color-surface-muted))"/><circle cx="654.0" cy="266.0" r="6" fill="rgb(var(--color-surface-muted))"/><circle cx="672.0" cy="266.0" r="6" fill="rgb(var(--color-surface-muted))"/><circle cx="690.0" cy="266.0" r="6" fill="rgb(var(--color-surface-muted))"/><circle cx="564.0" cy="284.0" r="6" fill="rgb(var(--color-surface-muted))"/><circle cx="582.0" cy="284.0" r="6" fill="rgb(var(--color-surface-muted))"/><circle cx="600.0" cy="284.0" r="6" fill="rgb(var(--color-surface-muted))"/><circle cx="618.0" cy="284.0" r="6" fill="rgb(var(--color-surface-muted))"/><circle cx="636.0" cy="284.0" r="6" fill="rgb(var(--color-surface-muted))"/><circle cx="654.0" cy="284.0" r="6" fill="rgb(var(--color-surface-muted))"/><circle cx="672.0" cy="284.0" r="6" fill="rgb(var(--color-surface-muted))"/><circle cx="690.0" cy="284.0" r="6" fill="rgb(var(--color-surface-muted))"/><circle cx="564.0" cy="302.0" r="6" fill="rgb(var(--color-surface-muted))"/><circle cx="582.0" cy="302.0" r="6" fill="rgb(var(--color-surface-muted))"/><circle cx="600.0" cy="302.0" r="6" fill="rgb(var(--color-surface-muted))"/><circle cx="618.0" cy="302.0" r="6" fill="rgb(var(--color-surface-muted))"/><circle cx="636.0" cy="302.0" r="6" fill="rgb(var(--color-surface-muted))"/><circle cx="654.0" cy="302.0" r="6" fill="rgb(var(--color-surface-muted))"/><circle cx="672.0" cy="302.0" r="6" fill="rgb(var(--color-surface-muted))"/><circle cx="690.0" cy="302.0" r="6" fill="rgb(var(--color-surface-muted))"/><circle cx="564.0" cy="320.0" r="6" fill="rgb(var(--color-surface-muted))"/><circle cx="582.0" cy="320.0" r="6" fill="rgb(var(--color-surface-muted))"/><circle cx="564.0" cy="410.0" r="6" fill="rgb(var(--color-surface-muted))"/><circle cx="582.0" cy="410.0" r="6" fill="rgb(var(--color-surface-muted))"/><circle cx="600.0" cy="410.0" r="6" fill="rgb(var(--color-surface-muted))"/><circle cx="618.0" cy="410.0" r="6" fill="rgb(var(--color-surface-muted))"/><circle cx="636.0" cy="410.0" r="6" fill="rgb(var(--color-surface-muted))"/><circle cx="654.0" cy="410.0" r="6" fill="rgb(var(--color-surface-muted))"/><circle cx="672.0" cy="410.0" r="6" fill="rgb(var(--color-surface-muted))"/><circle cx="690.0" cy="410.0" r="6" fill="rgb(var(--color-surface-muted))"/><circle cx="564.0" cy="428.0" r="6" fill="rgb(var(--color-surface-muted))"/><circle cx="582.0" cy="428.0" r="6" fill="rgb(var(--color-surface-muted))"/><circle cx="600.0" cy="428.0" r="6" fill="rgb(var(--color-surface-muted))"/><circle cx="618.0" cy="428.0" r="6" fill="rgb(var(--color-surface-muted))"/><circle cx="636.0" cy="428.0" r="6" fill="rgb(var(--color-surface-muted))"/><circle cx="654.0" cy="428.0" r="6" fill="rgb(var(--color-surface-muted))"/><circle cx="672.0" cy="428.0" r="6" fill="rgb(var(--color-surface-muted))"/><circle cx="690.0" cy="428.0" r="6" fill="rgb(var(--color-surface-muted))"/><circle cx="564.0" cy="446.0" r="6" fill="rgb(var(--color-surface-muted))"/><circle cx="582.0" cy="446.0" r="6" fill="rgb(var(--color-surface-muted))"/><circle cx="600.0" cy="446.0" r="6" fill="rgb(var(--color-surface-muted))"/><circle cx="618.0" cy="446.0" r="6" fill="rgb(var(--color-surface-muted))"/><circle cx="636.0" cy="446.0" r="6" fill="rgb(var(--color-surface-muted))"/><circle cx="654.0" cy="446.0" r="6" fill="rgb(var(--color-surface-muted))"/><circle cx="672.0" cy="446.0" r="6" fill="rgb(var(--color-surface-muted))"/><circle cx="690.0" cy="446.0" r="6" fill="rgb(var(--color-surface-muted))"/><circle cx="564.0" cy="464.0" r="6" fill="rgb(var(--color-surface-muted))"/><circle cx="582.0" cy="464.0" r="6" fill="rgb(var(--color-surface-muted))"/><circle cx="600.0" cy="464.0" r="6" fill="rgb(var(--color-surface-muted))"/><circle cx="618.0" cy="464.0" r="6" fill="rgb(var(--color-surface-muted))"/><circle cx="636.0" cy="464.0" r="6" fill="rgb(var(--color-surface-muted))"/><circle cx="654.0" cy="464.0" r="6" fill="rgb(var(--color-surface-muted))"/><circle cx="672.0" cy="464.0" r="6" fill="rgb(var(--color-surface-muted))"/><circle cx="564.0" cy="568.0" r="6" fill="rgb(var(--color-surface-muted))"/><circle cx="582.0" cy="568.0" r="6" fill="rgb(var(--color-surface-muted))"/><circle cx="600.0" cy="568.0" r="6" fill="rgb(var(--color-surface-muted))"/><circle cx="618.0" cy="568.0" r="6" fill="rgb(var(--color-surface-muted))"/><circle cx="636.0" cy="568.0" r="6" fill="rgb(var(--color-surface-muted))"/><circle cx="654.0" cy="568.0" r="6" fill="rgb(var(--color-surface-muted))"/><circle cx="672.0" cy="568.0" r="6" fill="rgb(var(--color-surface-muted))"/><circle cx="690.0" cy="568.0" r="6" fill="rgb(var(--color-surface-muted))"/><circle cx="564.0" cy="586.0" r="6" fill="rgb(var(--color-surface-muted))"/><circle cx="582.0" cy="586.0" r="6" fill="rgb(var(--color-surface-muted))"/><circle cx="600.0" cy="586.0" r="6" fill="rgb(var(--color-surface-muted))"/><circle cx="618.0" cy="586.0" r="6" fill="rgb(var(--color-surface-muted))"/><circle cx="636.0" cy="586.0" r="6" fill="rgb(var(--color-surface-muted))"/><circle cx="654.0" cy="586.0" r="6" fill="rgb(var(--color-surface-muted))"/><circle cx="672.0" cy="586.0" r="6" fill="rgb(var(--color-surface-muted))"/><circle cx="690.0" cy="586.0" r="6" fill="rgb(var(--color-surface-muted))"/><circle cx="564.0" cy="604.0" r="6" fill="rgb(var(--color-surface-muted))"/><circle cx="582.0" cy="604.0" r="6" fill="rgb(var(--color-surface-muted))"/><circle cx="600.0" cy="604.0" r="6" fill="rgb(var(--color-surface-muted))"/><circle cx="618.0" cy="604.0" r="6" fill="rgb(var(--color-surface-muted))"/><circle cx="636.0" cy="604.0" r="6" fill="rgb(var(--color-surface-muted))"/><circle cx="654.0" cy="604.0" r="6" fill="rgb(var(--color-surface-muted))"/><circle cx="672.0" cy="604.0" r="6" fill="rgb(var(--color-surface-muted))"/><circle cx="820.0" cy="104.0" r="6" fill="rgb(var(--color-surface-muted))"/><circle cx="838.0" cy="104.0" r="6" fill="rgb(var(--color-surface-muted))"/><circle cx="856.0" cy="104.0" r="6" fill="rgb(var(--color-surface-muted))"/><circle cx="874.0" cy="104.0" r="6" fill="rgb(var(--color-surface-muted))"/><circle cx="892.0" cy="104.0" r="6" fill="rgb(var(--color-surface-muted))"/><circle cx="910.0" cy="104.0" r="6" fill="rgb(var(--color-surface-muted))"/><circle cx="928.0" cy="104.0" r="6" fill="rgb(var(--color-surface-muted))"/><circle cx="946.0" cy="104.0" r="6" fill="rgb(var(--color-surface-muted))"/><circle cx="820.0" cy="122.0" r="6" fill="rgb(var(--color-surface-muted))"/><circle cx="838.0" cy="122.0" r="6" fill="rgb(var(--color-surface-muted))"/><circle cx="856.0" cy="122.0" r="6" fill="rgb(var(--color-surface-muted))"/><circle cx="874.0" cy="122.0" r="6" fill="rgb(var(--color-surface-muted))"/><circle cx="892.0" cy="122.0" r="6" fill="rgb(var(--color-surface-muted))"/><circle cx="910.0" cy="122.0" r="6" fill="rgb(var(--color-surface-muted))"/><circle cx="928.0" cy="122.0" r="6" fill="rgb(var(--color-surface-muted))"/><circle cx="946.0" cy="122.0" r="6" fill="rgb(var(--color-surface-muted))"/><circle cx="820.0" cy="140.0" r="6" fill="rgb(var(--color-surface-muted))"/><circle cx="838.0" cy="140.0" r="6" fill="rgb(var(--color-surface-muted))"/><circle cx="856.0" cy="140.0" r="6" fill="rgb(var(--color-surface-muted))"/><circle cx="874.0" cy="140.0" r="6" fill="rgb(var(--color-surface-muted))"/><circle cx="892.0" cy="140.0" r="6" fill="rgb(var(--color-surface-muted))"/><circle cx="910.0" cy="140.0" r="6" fill="rgb(var(--color-surface-muted))"/><circle cx="928.0" cy="140.0" r="6" fill="rgb(var(--color-surface-muted))"/><circle cx="946.0" cy="140.0" r="6" fill="rgb(var(--color-surface-muted))"/><circle cx="820.0" cy="158.0" r="6" fill="rgb(var(--color-surface-muted))"/><circle cx="838.0" cy="158.0" r="6" fill="rgb(var(--color-surface-muted))"/><circle cx="856.0" cy="158.0" r="6" fill="rgb(var(--color-surface-muted))"/><circle cx="874.0" cy="158.0" r="6" fill="rgb(var(--color-surface-muted))"/><circle cx="892.0" cy="158.0" r="6" fill="rgb(var(--color-surface-muted))"/><circle cx="910.0" cy="158.0" r="6" fill="rgb(var(--color-surface-muted))"/><circle cx="928.0" cy="158.0" r="6" fill="rgb(var(--color-surface-muted))"/><circle cx="946.0" cy="158.0" r="6" fill="rgb(var(--color-surface-muted))"/><circle cx="820.0" cy="176.0" r="6" fill="rgb(var(--color-surface-muted))"/><circle cx="838.0" cy="176.0" r="6" fill="rgb(var(--color-surface-muted))"/><circle cx="856.0" cy="176.0" r="6" fill="rgb(var(--color-surface-muted))"/><circle cx="874.0" cy="176.0" r="6" fill="rgb(var(--color-surface-muted))"/><circle cx="892.0" cy="176.0" r="6" fill="rgb(var(--color-surface-muted))"/><circle cx="910.0" cy="176.0" r="6" fill="rgb(var(--color-surface-muted))"/><circle cx="928.0" cy="176.0" r="6" fill="rgb(var(--color-surface-muted))"/><circle cx="946.0" cy="176.0" r="6" fill="rgb(var(--color-surface-muted))"/><circle cx="820.0" cy="194.0" r="6" fill="rgb(var(--color-surface-muted))"/><circle cx="838.0" cy="194.0" r="6" fill="rgb(var(--color-surface-muted))"/><circle cx="856.0" cy="194.0" r="6" fill="rgb(var(--color-surface-muted))"/><circle cx="874.0" cy="194.0" r="6" fill="rgb(var(--color-surface-muted))"/><circle cx="892.0" cy="194.0" r="6" fill="rgb(var(--color-surface-muted))"/><circle cx="910.0" cy="194.0" r="6" fill="rgb(var(--color-surface-muted))"/><circle cx="928.0" cy="194.0" r="6" fill="rgb(var(--color-surface-muted))"/></g>
</svg>
